HIERARCHY
ROOT SpineBase
{
  OFFSET 0.000000 0.000000 0.000000
  CHANNELS 6 Xposition Yposition Zposition Zrotation Xrotation Yrotation
  JOINT SpineMid
  {
    OFFSET 0.000000 31.576503 0.000000
    CHANNELS 3 Zrotation Xrotation Yrotation
    JOINT SpineShoulder
    {
      OFFSET -0.030435 23.418362 -0.775311
      CHANNELS 3 Zrotation Xrotation Yrotation
      JOINT Neck
      {
        OFFSET -0.029168 7.746567 -0.576256
        CHANNELS 3 Zrotation Xrotation Yrotation
        JOINT Head
        {
          OFFSET 1.718142 15.742634 -3.450789
          CHANNELS 3 Zrotation Xrotation Yrotation
          End Site
          {
            OFFSET 0 0 0
          }
        }
      }
      JOINT ShoulderLeft
      {
        OFFSET -17.312310 -3.095047 -2.811538
        CHANNELS 3 Zrotation Xrotation Yrotation
        JOINT ElbowLeft
        {
          OFFSET -4.923074 -27.759026 -0.691629
          CHANNELS 3 Zrotation Xrotation Yrotation
          JOINT WristLeft
          {
            OFFSET -0.585801 -22.315569 -7.136147
            CHANNELS 3 Zrotation Xrotation Yrotation
            JOINT HandLeft
            {
              OFFSET 1.601105 -7.965747 -1.846634
              CHANNELS 3 Zrotation Xrotation Yrotation
              JOINT HandTipLeft
              {
                OFFSET 0.098984 -7.691607 -2.449045
                CHANNELS 3 Zrotation Xrotation Yrotation
                End Site
                {
                  OFFSET 0 0 0
                }
              }
              JOINT ThumbLeft
              {
                OFFSET 3.494876 0.184378 -1.890665
                CHANNELS 3 Zrotation Xrotation Yrotation
                End Site
                {
                  OFFSET 0 0 0
                }
              }
            }
          }
        }
      }
      JOINT ShoulderRight
      {
        OFFSET 15.941748 -5.053215 3.272764
        CHANNELS 3 Zrotation Xrotation Yrotation
        JOINT ElbowRight
        {
          OFFSET 5.470007 -29.356095 2.715567
          CHANNELS 3 Zrotation Xrotation Yrotation
          JOINT WristRight
          {
            OFFSET 8.258161 -16.061183 -14.275452
            CHANNELS 3 Zrotation Xrotation Yrotation
            JOINT HandRight
            {
              OFFSET 3.351462 -1.704115 -4.752619
              CHANNELS 3 Zrotation Xrotation Yrotation
              JOINT HandTipRight
              {
                OFFSET 4.124078 -1.216788 -8.574361
                CHANNELS 3 Zrotation Xrotation Yrotation
                End Site
                {
                  OFFSET 0 0 0
                }
              }
              JOINT ThumbRight
              {
                OFFSET -4.307198 -4.718259 -0.801973
                CHANNELS 3 Zrotation Xrotation Yrotation
                End Site
                {
                  OFFSET 0 0 0
                }
              }
            }
          }
        }
      }
    }
  }
  JOINT HipLeft
  {
    OFFSET -7.191129 1.201541 -4.656492
    CHANNELS 3 Zrotation Xrotation Yrotation
    JOINT KneeLeft
    {
      OFFSET -5.715903 -39.580876 -0.680268
      CHANNELS 3 Zrotation Xrotation Yrotation
      JOINT AnkleLeft
      {
        OFFSET -2.645414 -36.389576 8.449543
        CHANNELS 3 Zrotation Xrotation Yrotation
        JOINT FootLeft
        {
          OFFSET 1.543390 -4.105342 -13.983530
          CHANNELS 3 Zrotation Xrotation Yrotation
          End Site
          {
            OFFSET 0 0 0
          }
        }
      }
    }
  }
  JOINT HipRight
  {
    OFFSET 6.584302 0.344074 -2.463047
    CHANNELS 3 Zrotation Xrotation Yrotation
    JOINT KneeRight
    {
      OFFSET 1.450161 -41.079613 1.436318
      CHANNELS 3 Zrotation Xrotation Yrotation
      JOINT AnkleRight
      {
        OFFSET -2.673883 -36.336300 7.378652
        CHANNELS 3 Zrotation Xrotation Yrotation
        JOINT FootRight
        {
          OFFSET 0.461114 -8.739444 -5.431705
          CHANNELS 3 Zrotation Xrotation Yrotation
          End Site
          {
            OFFSET 0 0 0
          }
        }
      }
    }
  }
}
MOTION
Frames: 5
Frame Time: 0.033333
31.715484 86.077316 350.848681 -0.000000 0.000000 -9.047185 0.000000 -0.000000 9.047185 -0.000000 0.000000 0.000000 -0.000000 0.000000 0.000000 0.000000 0.000000 0.000000 -0.000000 0.000000 0.000000 -0.000000 0.000000 0.000000 -0.000000 0.000000 0.000000 -0.000000 0.000000 0.000000 0.000000 0.000000 0.000000 0.000000 0.000000 0.000000 -0.000000 0.000000 0.000000 -0.000000 0.000000 0.000000 -0.000000 0.000000 0.000000 -0.000000 0.000000 0.000000 0.000000 0.000000 0.000000 0.000000 0.000000 0.000000 0.000000 -0.000000 9.047185 -0.000000 0.000000 0.000000 -0.000000 0.000000 0.000000 0.000000 0.000000 0.000000 0.000000 -0.000000 9.047185 -0.000000 0.000000 0.000000 -0.000000 0.000000 0.000000 0.000000 0.000000 0.000000
31.830492 85.987048 350.789937 0.100474 0.028831 -8.768271 -0.094905 -0.043810 8.768209 -0.000000 0.000000 0.000000 -0.492944 -0.885081 -0.015229 0.000000 0.000000 0.000000 -0.000000 0.000000 0.000000 -0.000000 0.000000 0.000000 0.848123 1.204084 0.036356 -1.289623 -0.444284 0.089439 0.000000 0.000000 0.000000 0.000000 0.000000 0.000000 -0.000000 0.000000 0.000000 -2.847881 -5.115627 -0.240129 0.787790 1.756175 -0.908948 -1.055239 -3.168646 1.322903 0.000000 0.000000 0.000000 0.000000 0.000000 0.000000 -0.094905 -0.043810 8.768209 -0.000000 0.000000 0.000000 -0.000000 0.000000 0.000000 0.000000 0.000000 0.000000 -0.094905 -0.043810 8.768209 -0.000000 0.000000 0.000000 0.572710 0.891906 -0.311758 0.000000 0.000000 0.000000
31.951416 85.897391 350.727621 0.204927 0.045214 -8.568632 -0.195903 -0.075242 8.568422 -0.000000 0.000000 0.000000 -1.049138 -1.659636 -0.063763 0.000000 0.000000 0.000000 -0.000000 0.000000 0.000000 -0.000000 0.000000 0.000000 1.505435 2.174491 0.059121 -2.314540 -0.776287 0.137356 0.000000 0.000000 0.000000 0.000000 0.000000 0.000000 -0.000000 0.000000 0.000000 -5.312520 -9.601341 -0.742686 1.188315 3.006908 -1.888107 -1.885468 -6.272441 2.619943 0.000000 0.000000 0.000000 0.000000 0.000000 0.000000 -0.195903 -0.075242 8.568422 -0.000000 0.000000 0.000000 -0.000000 0.000000 0.000000 0.000000 0.000000 0.000000 -0.195903 -0.075242 8.568422 -0.000000 0.000000 0.000000 1.009997 1.552956 -0.554558 0.000000 0.000000 0.000000
32.078256 85.808346 350.661732 0.313290 0.049136 -8.447042 -0.302674 -0.094623 8.446657 -0.000000 0.000000 0.000000 -1.667973 -2.320019 -0.145306 0.000000 0.000000 0.000000 -0.000000 0.000000 0.000000 -0.000000 0.000000 0.000000 1.996007 2.944344 0.077143 -3.091244 -1.040324 0.153412 0.000000 0.000000 0.000000 0.000000 0.000000 0.000000 -0.000000 0.000000 0.000000 -7.449280 -13.506110 -1.427679 1.317948 3.922520 -2.922430 -2.436936 -9.107804 3.892285 0.000000 0.000000 0.000000 0.000000 0.000000 0.000000 -0.302674 -0.094623 8.446657 -0.000000 0.000000 0.000000 -0.000000 0.000000 0.000000 0.000000 0.000000 0.000000 -0.302674 -0.094623 8.446657 -0.000000 0.000000 0.000000 1.312021 1.989394 -0.725011 0.000000 0.000000 0.000000
32.211011 85.719912 350.592272 0.425487 0.040600 -8.402615 -0.414988 -0.102338 8.402094 -0.000000 0.000000 0.000000 -2.348268 -2.863211 -0.258955 0.000000 0.000000 0.000000 -0.000000 0.000000 0.000000 -0.000000 0.000000 0.000000 2.334725 3.536150 0.096507 -3.628987 -1.267959 0.143639 0.000000 0.000000 0.000000 0.000000 0.000000 0.000000 -0.863779 -0.133775 -0.105977 -8.403018 -16.782222 -2.108638 1.305192 4.686628 -4.005005 -2.711050 -11.539355 5.151258 0.000000 0.000000 0.000000 0.000000 0.000000 0.000000 -0.414988 -0.102338 8.402094 -0.000000 0.000000 0.000000 -0.000000 0.000000 0.000000 0.000000 0.000000 0.000000 -0.414988 -0.102338 8.402094 -0.000000 0.000000 0.000000 1.478961 2.205619 -0.820938 0.000000 0.000000 0.000000
